<svg width="57" height="26" fill="none" xmlns="http://www.w3.org/2000/svg"><path d="M48.782 25.284H8.218a.922.922 0 01-.872-.623L1.283 6.974a.923.923 0 011.018-1.209.92.92 0 01.788.548c.75 1.702 3.416 7.198 6.527 7.198l.117-.003c1.877-.084 4.811-2.25 8.136-12.086a.922.922 0 011.747 0c1.135 3.354 4.94 12.034 8.89 12.034h.032c1.873-.023 4.753-2.125 7.838-12.013a.922.922 0 01.88-.648h.01a.921.921 0 01.875.666c.943 3.246 4.286 11.749 8.387 12.104 2.396.197 5.053-2.514 7.675-7.87a.921.921 0 011.7.704l-6.249 18.26a.922.922 0 01-.873.623zM8.877 23.44h39.245l3.612-10.553c-1.745 1.847-3.518 2.671-5.366 2.516-4.542-.395-7.659-6.94-9.108-10.787-2.559 7.145-5.416 10.646-8.7 10.684l-.053.001c-4.59 0-8.134-7.036-9.739-10.918-2.739 7.228-5.678 10.821-8.953 10.968-1.679.065-3.141-.772-4.4-2.013L8.877 23.44z" fill="#A07B50" stroke="#1F1C1D" stroke-width=".8"/></svg>