<svg width="6" height="12" viewBox="0 0 6 12" fill="none" xmlns="http://www.w3.org/2000/svg">
<path d="M1.09903 2.7283C1.09903 3.00287 1.09903 4.22841 1.09903 4.22841H0V6.06275H1.09903V11.5138H3.35667V6.0629H4.87165C4.87165 6.0629 5.01353 5.18335 5.08231 4.22164C4.88513 4.22164 3.36521 4.22164 3.36521 4.22164C3.36521 4.22164 3.36521 3.15448 3.36521 2.96743C3.36521 2.77997 3.61136 2.52782 3.85465 2.52782C4.09748 2.52782 4.60999 2.52782 5.08469 2.52782C5.08469 2.27807 5.08469 1.41513 5.08469 0.618164C4.45099 0.618164 3.73004 0.618164 3.41225 0.618164C1.04322 0.618037 1.09903 2.4542 1.09903 2.7283Z" fill="white"/>
</svg>
