<svg width="57" height="26" viewBox="0 0 57 26" fill="none" xmlns="http://www.w3.org/2000/svg">
<path d="M48.7815 25.2835H8.21882C7.82477 25.2835 7.47451 25.033 7.34686 24.6605L1.28323 6.97501C1.11865 6.49287 1.37502 5.96906 1.85662 5.80343C2.00432 5.75331 2.15836 5.74065 2.30131 5.76597C2.63469 5.78549 2.94539 5.987 3.08939 6.31405C3.83897 8.01629 6.50549 13.5118 9.61617 13.5118C9.65467 13.5118 9.69371 13.5107 9.73327 13.5086C11.6096 13.4253 14.5441 11.2599 17.8689 1.42306C17.9961 1.04853 18.3468 0.796387 18.7419 0.796387C19.1376 0.796387 19.4883 1.04853 19.6155 1.42306C20.7507 4.77744 24.5555 13.4575 28.5065 13.4575C28.5171 13.4575 28.5271 13.4569 28.5382 13.4569C30.4113 13.4343 33.2915 11.3322 36.3758 1.44363C36.4966 1.05803 36.8526 0.796387 37.2562 0.796387H37.2651C37.6724 0.800607 38.0284 1.07069 38.1413 1.46157C39.084 4.70781 42.4273 13.2106 46.5281 13.5656C48.924 13.7629 51.5805 11.0515 54.2032 5.69582C54.4163 5.25852 54.9343 5.06176 55.3843 5.24902C55.8332 5.43523 56.0611 5.93847 55.9039 6.3995L49.654 24.6605C49.5258 25.0335 49.1756 25.2835 48.7815 25.2835ZM8.87714 23.4399H48.1222L51.734 12.8867C49.9885 14.734 48.2161 15.558 46.3677 15.4029C41.8259 15.0078 38.7094 8.46309 37.2604 4.61602C34.701 11.7605 31.8435 15.2615 28.5593 15.3C28.5413 15.3 28.5244 15.3011 28.5065 15.3011C23.9167 15.3011 20.3735 8.26475 18.7683 4.38339C16.0295 11.6107 13.0903 15.204 9.81503 15.3507C8.136 15.4156 6.67377 14.5789 5.41462 13.3377L8.87714 23.4399Z" fill="#A07B50" stroke="#1F1C1D" stroke-width="0.8"/>
</svg>
